<svg xmlns="http://www.w3.org/2000/svg" viewBox="0 0 700 700" width="700" height="700" font-family="monospace"><rect x="0" y="0" width="700" height="700" fill="#0c0a08"/><defs><pattern id="dots" width="22" height="22" patternUnits="userSpaceOnUse"><circle cx="1" cy="1" r="1" fill="#241d10"/></pattern></defs><rect x="0" y="0" width="700" height="700" fill="url(#dots)"/><circle cx="50.0" cy="650.0" r="15.0" fill="#4f9dde" opacity="1" stroke="#00000066" stroke-width="1"/><rect x="110.0" y="100.0" width="20.0" height="400.0" fill="#228B22" opacity="1" stroke="#00000066" stroke-width="1" rx="2"/><rect x="100.0" y="190.0" width="400.0" height="20.0" fill="#228B22" opacity="1" stroke="#00000066" stroke-width="1" rx="2"/><rect x="490.0" y="300.0" width="20.0" height="300.0" fill="#228B22" opacity="1" stroke="#00000066" stroke-width="1" rx="2"/><rect x="200.0" y="590.0" width="300.0" height="20.0" fill="#228B22" opacity="1" stroke="#00000066" stroke-width="1" rx="2"/><rect x="240.0" y="200.0" width="20.0" height="300.0" fill="#228B22" opacity="1" stroke="#00000066" stroke-width="1" rx="2"/><rect x="0.0" y="490.0" width="300.0" height="20.0" fill="#228B22" opacity="1" stroke="#00000066" stroke-width="1" rx="2"/><circle cx="350.0" cy="350.0" r="25.0" fill="#3498db" opacity="0.88" stroke="#00000066" stroke-width="1"/><rect x="0.0" y="0.0" width="700.0" height="20.0" fill="#5a5a5a" opacity="1" stroke="#00000066" stroke-width="1" rx="2"/><rect x="0.0" y="680.0" width="700.0" height="20.0" fill="#5a5a5a" opacity="1" stroke="#00000066" stroke-width="1" rx="2"/><rect x="0.0" y="0.0" width="20.0" height="700.0" fill="#5a5a5a" opacity="1" stroke="#00000066" stroke-width="1" rx="2"/><rect x="680.0" y="0.0" width="20.0" height="700.0" fill="#5a5a5a" opacity="1" stroke="#00000066" stroke-width="1" rx="2"/><rect x="0.5" y="0.5" width="699" height="699" fill="none" stroke="#35291a" stroke-width="1"/></svg>